<svg width="129" height="129" viewBox="0 0 129 129" fill="none" xmlns="http://www.w3.org/2000/svg">
<circle cx="64.5" cy="64.5" r="64.5" fill="url(#paint0_radial_1037_4428)"/>
<path d="M57.5 115.5C57.5 115.5 44 96 40 108C34.7275 104.117 31.2652 81.3137 25.1425 78.9933L37.5 67L29 58L25.8242 46.9366C25.3703 45.3796 25.378 45.3096 26.1081 41.6912C28.1352 33.3806 39.032 16.5884 45.647 6.16493C45.6597 15.0368 48.3207 39.0766 47.5167 48.7669C49.7686 34.6441 64.5792 24.2377 64.5792 24.2377L72.3337 18.6814L64.6483 44.0431L68.5 48C68.5 48 81.5783 40.6933 91.5 40.5C109.5 41 119.5 59.5 119.5 59.5C119.5 59.5 92.8477 57.0922 86.5 71C82.119 80.5989 85.5 99.5 85.5 99.5L75 94C75 94 78.5 111 81.5 113.5C75.5 117.5 73 126.5 73 126.5L57.5 115.5Z" fill="#272830"/>
<path d="M57.5 115.5C57.5 115.5 44 96 40 108C34.7275 104.117 31.2652 81.3137 25.1425 78.9933L37.5 67L29 58L25.8242 46.9366C25.3703 45.3796 25.378 45.3096 26.1081 41.6912C28.1352 33.3806 39.032 16.5884 45.647 6.16493C45.6606 15.635 48.6916 42.3874 47.305 50.5223C48.5292 35.5149 64.5792 24.2377 64.5792 24.2377L72.3337 18.6814L64.6483 44.0431L68.5 48C68.5 48 81.5783 40.6933 91.5 40.5C109.5 41 119.5 59.5 119.5 59.5C119.5 59.5 92.8477 57.0922 86.5 71C82.119 80.5989 85.5 99.5 85.5 99.5L75 94C75 94 78.5 111 81.5 113.5C75.5 117.5 73 126.5 73 126.5L57.5 115.5Z" stroke="black" stroke-width="2" stroke-miterlimit="12.8023"/>
<path d="M71.2847 105.928L72.4927 125.406L61.8925 109.365L59.6725 106.577C55.9771 101.938 53.7023 96.3277 53.1227 90.4252C52.9463 88.6305 52.928 86.8234 53.0685 85.0262L53.5444 78.9272L49.8368 84.2503L49.7171 84.4795C46.7407 90.1499 46.0278 96.7394 47.722 102.917L42.3396 98.3641L40.0326 105.026L35.7623 89.4558C35.2425 87.5606 34.9481 85.6105 34.8849 83.6453L34.8464 82.4569C34.7533 79.5645 35.2992 76.6881 36.445 74.0312C36.9682 72.8163 37.6125 71.6578 38.3683 70.5738L40.9394 66.8818L38.8631 63.834C37.9417 62.4813 36.9235 61.1965 35.8169 59.9911L34.3716 58.4169C33.4988 57.4661 32.7432 56.4142 32.121 55.2843C30.0813 51.5788 29.5768 47.2213 30.7161 43.1479L31.0328 42.0154C31.3751 40.7916 31.8393 39.6051 32.4182 38.4738L42.313 19.1361L42.5956 33.0938C42.6267 34.6317 42.8483 36.1599 43.2551 37.6434C44.148 40.8988 45.9089 43.8505 48.3494 46.1828L50.2218 47.9721L50.9988 46.5407C54.1152 40.7994 58.2758 35.6903 63.2666 31.4756L60.2872 39.48C59.9031 40.5121 59.8531 41.6387 60.1444 42.7005C60.5565 44.2033 60.2798 45.8116 59.3893 47.0903L58.7791 47.966C58.6402 48.166 58.5158 48.3758 58.4063 48.5919C57.3318 50.7331 57.8953 53.3346 59.7592 54.8387L60.1557 55.1589C60.4166 55.3698 60.6951 55.5569 60.9883 55.7177L67.8525 59.5004L64.2498 55.5759C63.7117 54.9897 63.3213 54.2838 63.1108 53.5164C62.6306 51.7654 63.1376 49.8918 64.4353 48.6212L64.7769 48.2864C69.2843 50.7708 74.7846 50.6092 79.1398 47.8679L80.2177 47.1882C81.2533 46.5373 82.3588 46.0032 83.5137 45.5986L84.1592 45.3734C89.8681 43.3718 97.9114 45.7529 100.777 47.0254C103.642 48.298 110.622 54.6602 110.622 54.6602L102.172 55.2551C92.8681 58.229 87.29 61.1197 83.1213 69.954L79.3134 76.7843C78.4113 78.4045 79.9055 80.3098 81.6932 79.8195L79.0619 93.4599L73.2994 88.1504L70.9742 92.2331L72.6539 95.2174L68.6484 96.316L71.2847 105.928Z" fill="#9A9FB9"/>
<defs>
<radialGradient id="paint0_radial_1037_4428" cx="0" cy="0" r="1" gradientUnits="userSpaceOnUse" gradientTransform="translate(64.5 64.5) rotate(90) scale(64.5)">
<stop stop-color="#1B0000"/>
<stop offset="0.6875" stop-color="#610000"/>
<stop offset="0.75" stop-color="#FFEB6B"/>
<stop offset="0.841346" stop-color="#8D0000" stop-opacity="0.5"/>
<stop offset="1" stop-color="#1B0000" stop-opacity="0"/>
</radialGradient>
</defs>
</svg>
